<svg width="44" height="43" viewBox="0 0 44 43" fill="none" xmlns="http://www.w3.org/2000/svg">
<path d="M10.3912 21.3705L5.56615 26.1989L0.741089 21.3705L5.56615 16.5455L10.3912 21.3705ZM22.1116 9.65346L30.3827 17.9245L35.2111 13.0995L22.1116 -7.62939e-06L9.01215 13.0995L13.8406 17.9245L22.1116 9.65346ZM38.6571 16.5455L33.832 21.3705L38.6571 26.1989L43.4821 21.3705L38.6571 16.5455ZM22.1116 33.0909L13.8406 24.8199L9.01215 29.6449L22.1116 42.741L35.2111 29.6449L30.3827 24.8199L22.1116 33.0909ZM22.1116 26.1989L26.9367 21.3705L22.1116 16.5455L17.2866 21.3705L22.1116 26.1989Z" fill="#F0B90B"/>
</svg>
